<svg width="481" height="512" viewBox="0 0 481 512" fill="none" xmlns="http://www.w3.org/2000/svg">
<path d="M183.764 6.51791L1.00799 498.518C-1.41862 505.051 3.41333 512 10.3822 512H113.485C117.692 512 121.388 509.536 122.823 505.582C139.248 460.349 237.059 190.949 241.76 177.513C246.892 162.842 247.185 162.842 252.171 177.513C256.73 190.93 348.365 459.564 363.995 505.382C365.376 509.432 369.128 512 373.407 512H470.088C476.924 512 481.745 505.293 479.566 498.813L314.142 6.81304C312.773 2.74225 308.958 0 304.663 0H193.138C188.958 0 185.219 2.59967 183.764 6.51791Z" fill="url(#paint0_linear_7_8)"/>
<defs>
<linearGradient id="paint0_linear_7_8" x1="240" y1="0" x2="240" y2="512" gradientUnits="userSpaceOnUse">
<stop stop-color="#541BFE"/>
<stop offset="1" stop-color="#A774FD"/>
</linearGradient>
</defs>
</svg>
