<svg width="184" height="192" viewBox="0 0 184 192" fill="none" xmlns="http://www.w3.org/2000/svg">
<path d="M71.2235 1.30024L1.00832 189.3C0.520139 190.607 1.48662 192 2.88191 192H45.541C46.381 192 47.1278 191.485 47.4159 190.696C52.1623 177.696 90.8473 71.7308 92.6635 66.5673C94.5986 61.0659 94.7091 61.0659 96.5889 66.5673C98.3512 71.7246 134.611 177.443 139.14 190.649C139.417 191.458 140.177 192 141.032 192H181.213C182.581 192 183.546 190.656 183.107 189.359L119.551 1.35948C119.276 0.546926 118.514 0 117.656 0H73.0971C72.2624 0 71.5155 0.518337 71.2235 1.30024Z" fill="url(#paint0_linear_7_8)"/>
<defs>
<linearGradient id="paint0_linear_7_8" x1="92" y1="0" x2="92" y2="192" gradientUnits="userSpaceOnUse">
<stop stop-color="#541BFE"/>
<stop offset="1" stop-color="#A774FD"/>
</linearGradient>
</defs>
</svg>
