<svg width="1632" height="1745" viewBox="0 0 1632 1745" fill="none" xmlns="http://www.w3.org/2000/svg">
<path d="M621.813 26.0659L3.04374 1691.07C-6.66772 1717.2 12.6602 1745 40.5382 1745H379.474C396.299 1745 411.284 1734.58 417.029 1718.77C477.438 1552.48 805.117 650.381 821 605C838.5 555 839.5 555 856.5 605C871.904 650.305 1178.77 1549.47 1236.26 1717.93C1241.79 1734.13 1257 1745 1274.11 1745H1591.34C1618.69 1745 1637.97 1718.17 1629.25 1692.25L1069.17 27.2466C1063.69 10.9663 1048.43 0 1031.25 0H659.308C642.591 0 627.637 10.3959 621.813 26.0659Z" fill="url(#paint0_linear_7_3)"/>
<defs>
<linearGradient id="paint0_linear_7_3" x1="815" y1="0" x2="815" y2="1745" gradientUnits="userSpaceOnUse">
<stop stop-color="#541BFE"/>
<stop offset="1" stop-color="#A774FD"/>
</linearGradient>
</defs>
</svg>
