<svg width="243" height="224" viewBox="0 0 243 224" fill="none" xmlns="http://www.w3.org/2000/svg">
<path d="M208.561 -59.9232C221.273 -57.1489 232.839 -54.5516 244.587 -52.0134C241.093 -59.0377 226.574 -61.8121 227.96 -67.4197C231.273 -73.4996 237.478 -70.312 240.852 -68.2461C246.816 -64.5273 252.84 -60.3364 257.358 -55.1419C273.142 -36.9613 281.456 -14.8259 289.528 7.30948C294.769 21.8303 298.625 36.5873 297.721 52.0525C294.649 105.768 270.07 146.851 219.586 169.459C162.174 195.136 92.6538 165.445 69.8217 107.716C67.4119 101.636 64.2191 95.8512 60.9659 90.1255C52.2909 75.0143 46.9895 59.372 49.9414 41.7227C52.2909 27.438 59.0382 15.6914 69.5204 5.77476C71.8699 3.5317 74.3399 1.05254 75.846 -1.78079C89.2199 -26.5134 110.004 -42.569 136.752 -51.4232C151.451 -56.3225 166.211 -61.1627 181.151 -65.3537C186.512 -66.8294 192.537 -66.5343 198.26 -66.5343C203.079 -66.2982 207.296 -64.6454 208.561 -59.9232ZM218.622 24.0734C206.814 73.1845 173.379 96.4414 126.872 105.237C129.763 113.796 133.981 118.518 142.053 121.115C146.571 122.591 151.391 123.594 156.09 123.83C205.308 126.309 241.153 76.8442 222.839 31.9241C221.815 29.5039 220.309 27.2018 218.622 24.0734ZM169.162 164.028C212.236 166.153 243.683 146.792 265.551 112.025C289.528 73.8338 289.106 34.0491 270.13 -6.20788C265.551 -4.02385 261.334 -1.95788 256.937 0.167122C258.382 2.46921 259.467 4.24004 260.611 6.0699C267.78 17.9345 272.479 30.6255 273.744 44.438C275.973 69.0526 268.202 90.7748 252.84 110.018C235.309 131.976 211.574 146.025 186.814 158.657C183.259 160.487 179.163 161.195 175.247 162.434C173.199 162.907 171.15 163.438 169.162 164.028ZM210.911 -29.4648C223.02 -26.1002 234.466 -21.0239 244.286 -12.819C245.43 -11.8745 247.478 -11.2252 248.864 -11.5794C254.647 -12.819 266.937 -15.7704 264.407 -19.194C259.407 -33.6558 231.092 -47.4683 210.971 -45.5204C210.911 -40.503 210.911 -35.4266 210.911 -29.4648ZM198.26 24.6637C180.729 18.0525 138.318 46.9171 134.523 67.4588C152.596 64.6845 185.609 44.556 195.489 30.0942C196.633 28.4414 197.356 26.4935 198.26 24.6637ZM200.188 9.78865C192.356 5.0074 183.018 2.2331 174.283 4.65324C164.102 7.48657 153.8 11.9727 145.186 17.9345C131.631 27.2609 122.113 40.4241 117.233 56.1845C116.149 59.7262 115.064 63.8581 118.86 67.931C120.667 64.6845 122.113 61.7921 123.739 59.0178C140.908 30.3893 164.765 11.8546 200.188 9.78865ZM181.813 -46.2287C153.8 -47.4093 132.715 -34.8364 113.498 -15.7114C120.968 -16.5968 127.354 -17.3051 133.74 -18.1315C136.571 -18.4857 139.704 -18.3086 142.053 -19.5482C153.319 -25.4509 165.247 -29.4648 177.476 -31.3537C178.982 -36.4891 180.368 -41.1523 181.813 -46.2287ZM244.587 94.1984C266.455 67.1046 263.262 29.3859 242.478 4.83031C241.635 3.82684 240.249 2.64629 239.044 2.52824C233.382 1.99699 227.719 1.8199 222.116 1.52476C222.899 3.11852 223.682 3.64977 224.466 4.18102C254.828 23.306 263.142 49.9275 248.924 82.3928C247.237 86.2887 246.033 90.3026 244.587 94.1984ZM114.1 82.6289C104.823 78.438 100.546 71.4727 100.847 62.2053C100.967 58.2505 101.931 54.2956 103.076 50.5178C106.329 39.4796 112.835 30.2123 120.004 21.2991C120.908 20.1775 121.269 18.7019 121.872 17.4032C107.474 24.1914 90.0031 59.7852 95.8467 84.7539C100.847 86.7018 106.51 88.8859 112.233 91.0699C112.956 89.4171 113.377 88.8269 113.438 88.1776C113.739 86.4657 113.859 84.872 114.1 82.6289ZM125.366 90.7157C149.583 87.1741 169.283 77.3755 185.127 60.3164C175.91 64.9796 167.174 70.7643 157.777 74.9553C148.077 79.2643 137.655 82.0387 126.51 85.8755C126.45 86.1706 126.028 87.8824 125.366 90.7157ZM147.234 138.587C167.415 141.716 186.874 139 205.067 130.028C210.128 127.549 214.285 123.24 218.863 119.757C218.502 119.049 218.08 118.4 217.718 117.691C196.453 131.976 172.416 136.816 147.234 138.587ZM122.113 123.889C118.98 117.514 115.968 111.434 112.775 104.882C108.799 104.056 104.281 103.112 99.401 102.108C103.257 115.566 106.992 119.167 122.113 123.889ZM91.5092 13.9206C101.931 7.78171 112.474 1.52477 123.619 -5.08634C107.293 -6.56204 96.7503 -0.068985 91.5092 13.9206ZM61.1467 64.2713C61.9901 53.3512 62.7732 43.4345 63.6769 32.1602C59.0984 43.0803 57.8935 52.938 61.1467 64.2713ZM200.007 -40.7391C192.055 -40.2079 191.814 -39.9127 190.85 -32.2391C193.079 -32.003 195.308 -31.7669 198.441 -31.4127C198.983 -34.6593 199.465 -37.3155 200.007 -40.7391Z" fill="#333333"/>
</svg>
