<svg width="194" height="179" viewBox="0 0 194 179" fill="none" xmlns="http://www.w3.org/2000/svg">
<path d="M159.561 -59.9232C172.273 -57.1489 183.839 -54.5516 195.587 -52.0134C192.093 -59.0377 177.574 -61.8121 178.96 -67.4197C182.273 -73.4996 188.478 -70.312 191.852 -68.2461C197.816 -64.5273 203.84 -60.3364 208.358 -55.1419C224.142 -36.9613 232.456 -14.8259 240.528 7.30948C245.769 21.8303 249.625 36.5873 248.721 52.0525C245.649 105.768 221.07 146.851 170.586 169.459C113.174 195.136 43.6538 165.445 20.8217 107.716C18.4119 101.636 15.2191 95.8511 11.9659 90.1255C3.29093 75.0143 -2.01046 59.372 0.94145 41.7227C3.29093 27.438 10.0382 15.6914 20.5204 5.77476C22.8699 3.5317 25.3399 1.05254 26.846 -1.78079C40.2199 -26.5134 61.0038 -42.569 87.7517 -51.4232C102.451 -56.3225 117.211 -61.1627 132.151 -65.3537C137.512 -66.8294 143.537 -66.5343 149.26 -66.5343C154.079 -66.2982 158.296 -64.6454 159.561 -59.9232ZM169.622 24.0734C157.814 73.1845 124.379 96.4414 77.8718 105.237C80.7635 113.796 84.9805 118.518 93.0531 121.115C97.5713 122.591 102.391 123.594 107.09 123.83C156.308 126.309 192.153 76.8442 173.839 31.9241C172.815 29.5039 171.309 27.2018 169.622 24.0734ZM120.162 164.028C163.236 166.153 194.683 146.792 216.551 112.025C240.528 73.8338 240.106 34.0491 221.13 -6.20788C216.551 -4.02385 212.334 -1.95788 207.937 0.167125C209.382 2.46921 210.467 4.24004 211.611 6.0699C218.78 17.9345 223.479 30.6255 224.744 44.438C226.973 69.0525 219.202 90.7748 203.84 110.018C186.309 131.976 162.574 146.025 137.814 158.657C134.259 160.487 130.163 161.195 126.247 162.434C124.199 162.907 122.15 163.438 120.162 164.028ZM161.911 -29.4648C174.02 -26.1002 185.466 -21.0239 195.286 -12.819C196.43 -11.8745 198.478 -11.2252 199.864 -11.5794C205.647 -12.819 217.937 -15.7704 215.407 -19.194C210.407 -33.6558 182.092 -47.4683 161.971 -45.5204C161.911 -40.503 161.911 -35.4266 161.911 -29.4648ZM149.26 24.6637C131.729 18.0525 89.318 46.9171 85.5227 67.4588C103.596 64.6845 136.609 44.556 146.489 30.0942C147.633 28.4414 148.356 26.4935 149.26 24.6637ZM151.188 9.78865C143.356 5.0074 134.018 2.2331 125.283 4.65324C115.102 7.48657 104.8 11.9727 96.1857 17.9345C82.631 27.2609 73.1126 40.4241 68.2329 56.1845C67.1486 59.7262 66.0642 63.8581 69.8595 67.931C71.6668 64.6845 73.1126 61.7921 74.7392 59.0178C91.9085 30.3893 115.765 11.8546 151.188 9.78865ZM132.813 -46.2287C104.8 -47.4093 83.7154 -34.8364 64.4979 -15.7114C71.968 -16.5968 78.3538 -17.3051 84.7395 -18.1315C87.571 -18.4857 90.7036 -18.3086 93.0531 -19.5482C104.319 -25.4509 116.247 -29.4648 128.476 -31.3537C129.982 -36.4891 131.368 -41.1523 132.813 -46.2287ZM195.587 94.1984C217.455 67.1046 214.262 29.3859 193.478 4.83031C192.635 3.82684 191.249 2.64629 190.044 2.52823C184.382 1.99698 178.719 1.8199 173.116 1.52476C173.899 3.11851 174.682 3.64977 175.466 4.18102C205.828 23.306 214.142 49.9275 199.924 82.3928C198.237 86.2887 197.033 90.3025 195.587 94.1984ZM65.1003 82.6289C55.8229 78.438 51.5456 71.4727 51.8468 62.2053C51.9673 58.2505 52.9312 54.2956 54.0758 50.5178C57.329 39.4796 63.8352 30.2123 71.0041 21.2991C71.9078 20.1775 72.2692 18.7018 72.8717 17.4032C58.4736 24.1914 41.0031 59.7852 46.8467 84.7539C51.8468 86.7018 57.5097 88.8859 63.2328 91.0699C63.9557 89.4171 64.3774 88.8269 64.4376 88.1775C64.7388 86.4657 64.8593 84.872 65.1003 82.6289ZM76.3658 90.7157C100.583 87.1741 120.283 77.3755 136.127 60.3164C126.91 64.9796 118.174 70.7643 108.777 74.9553C99.0774 79.2643 88.6553 82.0387 77.5104 85.8755C77.4501 86.1706 77.0284 87.8824 76.3658 90.7157ZM98.234 138.587C118.415 141.716 137.874 139 156.067 130.028C161.128 127.549 165.285 123.24 169.863 119.757C169.502 119.049 169.08 118.4 168.718 117.691C147.453 131.976 123.416 136.816 98.234 138.587ZM73.1126 123.889C69.98 117.514 66.9678 111.434 63.775 104.882C59.7989 104.056 55.2807 103.112 50.401 102.108C54.2566 115.566 57.9916 119.167 73.1126 123.889ZM42.5092 13.9206C52.9312 7.78171 63.4737 1.52477 74.6187 -5.08634C58.2928 -6.56204 47.7503 -0.068986 42.5092 13.9206ZM12.1467 64.2713C12.9901 53.3512 13.7732 43.4345 14.6769 32.1602C10.0984 43.0803 8.89353 52.938 12.1467 64.2713ZM151.007 -40.7391C143.055 -40.2079 142.814 -39.9127 141.85 -32.2391C144.079 -32.003 146.308 -31.7669 149.441 -31.4127C149.983 -34.6593 150.465 -37.3155 151.007 -40.7391Z" fill="black"/>
</svg>
